<svg preserveAspectRatio="none" width="100%" height="100%" overflow="visible" style="display: block;" viewBox="0 0 79.2196 91.2196" fill="none" xmlns="http://www.w3.org/2000/svg">
<g id="Shadow" filter="url(#filter0_d_0_6)">
<path id="Icon" d="M39.6098 45.7891C41.3196 45.7891 42.7769 45.1867 43.9818 43.9818C45.1867 42.7769 45.7891 41.3196 45.7891 39.6098C45.7891 37.9 45.1867 36.4427 43.9818 35.2378C42.7769 34.0329 41.3196 33.4304 39.6098 33.4304C37.9 33.4304 36.4427 34.0329 35.2378 35.2378C34.0329 36.4427 33.4304 37.9 33.4304 39.6098C33.4304 41.3196 34.0329 42.7769 35.2378 43.9818C36.4427 45.1867 37.9 45.7891 39.6098 45.7891V45.7891M39.6098 76.2196C31.3685 69.25 25.2065 62.8128 21.1239 56.9079C17.0413 51.003 15 45.4131 15 40.1381C15 32.4707 17.4753 26.3641 22.4258 21.8185C27.3764 17.2728 33.1044 15 39.6098 15C46.1152 15 51.8432 17.2728 56.7938 21.8185C61.7443 26.3641 64.2196 32.4707 64.2196 40.1381C64.2196 45.4131 62.1783 51.003 58.0957 56.9079C54.0131 62.8128 47.8511 69.25 39.6098 76.2196V76.2196" fill="white"/>
</g>
<defs>
<filter id="filter0_d_0_6" x="0" y="0" width="79.2196" height="91.2196" filterUnits="userSpaceOnUse" color-interpolation-filters="sRGB">
<feFlood flood-opacity="0" result="BackgroundImageFix"/>
<feColorMatrix in="SourceAlpha" type="matrix" values="0 0 0 0 0 0 0 0 0 0 0 0 0 0 0 0 0 0 127 0" result="hardAlpha"/>
<feOffset/>
<feGaussianBlur stdDeviation="7.5"/>
<feComposite in2="hardAlpha" operator="out"/>
<feColorMatrix type="matrix" values="0 0 0 0 1 0 0 0 0 1 0 0 0 0 1 0 0 0 0.3 0"/>
<feBlend mode="normal" in2="BackgroundImageFix" result="effect1_dropShadow_0_6"/>
<feBlend mode="normal" in="SourceGraphic" in2="effect1_dropShadow_0_6" result="shape"/>
</filter>
</defs>
</svg>
