<svg preserveAspectRatio="none" width="100%" height="100%" overflow="visible" style="display: block;" viewBox="0 0 68 68" fill="none" xmlns="http://www.w3.org/2000/svg">
<g id="Secondary pulsing-style icon overlay" filter="url(#filter0_f_0_4)">
<path id="Icon" d="M34 49C38.15 49 41.6875 47.5375 44.6125 44.6125C47.5375 41.6875 49 38.15 49 34C49 29.85 47.5375 26.3125 44.6125 23.3875C41.6875 20.4625 38.15 19 34 19C29.85 19 26.3125 20.4625 23.3875 23.3875C20.4625 26.3125 19 29.85 19 34C19 38.15 20.4625 41.6875 23.3875 44.6125C26.3125 47.5375 29.85 49 34 49V49M34 64C29.85 64 25.95 63.2125 22.3 61.6375C18.65 60.0625 15.475 57.925 12.775 55.225C10.075 52.525 7.9375 49.35 6.3625 45.7C4.7875 42.05 4 38.15 4 34C4 29.85 4.7875 25.95 6.3625 22.3C7.9375 18.65 10.075 15.475 12.775 12.775C15.475 10.075 18.65 7.9375 22.3 6.3625C25.95 4.7875 29.85 4 34 4C38.15 4 42.05 4.7875 45.7 6.3625C49.35 7.9375 52.525 10.075 55.225 12.775C57.925 15.475 60.0625 18.65 61.6375 22.3C63.2125 25.95 64 29.85 64 34C64 38.15 63.2125 42.05 61.6375 45.7C60.0625 49.35 57.925 52.525 55.225 55.225C52.525 57.925 49.35 60.0625 45.7 61.6375C42.05 63.2125 38.15 64 34 64V64M34 58C40.7 58 46.375 55.675 51.025 51.025C55.675 46.375 58 40.7 58 34C58 27.3 55.675 21.625 51.025 16.975C46.375 12.325 40.7 10 34 10C27.3 10 21.625 12.325 16.975 16.975C12.325 21.625 10 27.3 10 34C10 40.7 12.325 46.375 16.975 51.025C21.625 55.675 27.3 58 34 58V58" fill="#135BEC" fill-opacity="0.4"/>
</g>
<defs>
<filter id="filter0_f_0_4" x="0" y="0" width="68" height="68" filterUnits="userSpaceOnUse" color-interpolation-filters="sRGB">
<feFlood flood-opacity="0" result="BackgroundImageFix"/>
<feBlend mode="normal" in="SourceGraphic" in2="BackgroundImageFix" result="shape"/>
<feGaussianBlur stdDeviation="2" result="effect1_foregroundBlur_0_4"/>
</filter>
</defs>
</svg>
